<?xml version="1.0" standalone="no"?>
<!DOCTYPE svg PUBLIC "-//W3C//DTD SVG 20010904//EN"
 "http://www.w3.org/TR/2001/REC-SVG-20010904/DTD/svg10.dtd">
<svg version="1.0" xmlns="http://www.w3.org/2000/svg"
 width="480.000000pt" height="800.000000pt" viewBox="0 0 480.000000 800.000000"
 preserveAspectRatio="xMidYMid meet">
<metadata>
Created by potrace 1.13, written by Peter Selinger 2001-2015
</metadata>
<g transform="translate(0.000000,800.000000) scale(0.100000,-0.100000)"
fill="#000000" stroke="none">
<path d="M960 6007 l0 -262 45 3 45 4 0 204 c0 129 4 204 10 204 6 0 10 -6 10
-12 0 -7 34 -98 74 -203 l75 -190 37 0 38 0 76 197 c42 109 80 201 83 205 4 3
7 -87 7 -200 l0 -207 50 0 50 0 0 260 0 260 -77 0 -78 0 -69 -173 c-38 -94
-72 -176 -76 -180 -4 -5 -40 73 -80 172 l-72 181 -74 0 -74 0 0 -263z"/>
<path d="M2490 6012 c0 -142 2 -261 4 -263 3 -2 25 -3 50 -1 l46 4 0 114 c0
109 1 116 25 139 16 17 35 25 59 25 57 0 70 -31 74 -170 l4 -115 44 4 44 3 0
124 c0 133 -10 173 -50 209 -30 27 -138 29 -167 3 -11 -10 -23 -18 -26 -18 -4
0 -7 45 -7 100 l0 100 -50 0 -50 0 0 -258z"/>
<path d="M247 6001 c-108 -137 -197 -251 -197 -253 0 -2 26 -1 57 0 l58 4 142
181 143 182 0 68 c0 37 -1 67 -3 67 -1 0 -91 -112 -200 -249z"/>
<path d="M548 6000 l-197 -250 57 0 57 0 142 183 143 182 0 68 c0 37 -1 67 -2
67 -2 0 -92 -113 -200 -250z"/>
<path d="M3383 6123 c-35 -45 -63 -84 -63 -87 0 -3 6 -6 14 -6 11 0 15 -26 17
-121 4 -119 5 -121 33 -145 25 -22 36 -25 95 -22 l66 3 3 37 3 37 -35 -6 c-58
-9 -66 5 -66 118 l0 99 29 0 c21 0 36 9 55 35 l27 35 -55 0 -55 0 -3 53 -3 52
-62 -82z"/>
<path d="M3623 6113 c-50 -67 -59 -83 -44 -83 18 0 20 -10 23 -121 3 -119 3
-121 32 -145 25 -22 36 -25 95 -22 l66 3 3 37 3 36 -39 -5 c-59 -8 -74 19 -70
128 l3 84 53 3 c52 3 52 3 52 37 0 34 0 34 -52 37 l-53 3 -5 46 -5 45 -62 -83z"/>
<path d="M1704 6091 c-54 -25 -58 -34 -30 -60 23 -22 25 -22 51 -5 14 9 47 18
71 18 38 1 50 -4 70 -27 13 -15 24 -32 24 -36 0 -4 -34 -11 -76 -14 -102 -9
-160 -35 -180 -82 -20 -49 -4 -99 40 -126 47 -29 131 -26 179 6 l37 26 0 -23
c0 -21 4 -23 40 -20 l40 4 -1 122 c0 192 -24 228 -152 234 -55 2 -82 -2 -113
-17z"/>
<path d="M2186 6085 c-34 -23 -36 -23 -36 -5 0 17 -7 20 -45 20 l-45 0 0 -175
0 -175 45 0 45 0 0 105 c0 141 17 175 88 175 59 0 72 -32 72 -168 l0 -110 45
-4 45 -3 0 133 c0 149 -10 186 -59 215 -43 25 -111 22 -155 -8z"/>
<path d="M3005 6097 c-16 -6 -41 -18 -54 -26 l-24 -13 26 -25 c23 -23 26 -24
48 -10 69 43 169 19 169 -41 0 -5 -35 -12 -77 -16 -87 -8 -156 -34 -172 -64
-18 -35 -13 -96 10 -121 46 -49 143 -57 203 -16 l36 24 0 -22 c0 -19 5 -22 40
-22 l40 0 0 135 c0 146 -6 169 -53 204 -33 25 -145 32 -192 13z"/>
<path d="M3945 6097 c-16 -7 -41 -18 -54 -26 l-24 -13 26 -25 c23 -23 26 -24
48 -10 69 43 169 19 169 -41 0 -5 -34 -12 -76 -15 -85 -8 -157 -35 -173 -65
-18 -35 -13 -100 9 -122 48 -48 145 -55 204 -15 l36 24 0 -22 c0 -19 5 -22 40
-22 l40 0 0 130 c0 150 -12 189 -70 217 -40 21 -129 23 -175 5z"/>
<path d="M4403 6086 c-37 -31 -46 -33 -38 -6 6 18 2 20 -39 20 l-46 0 0 -175
0 -175 45 0 45 0 0 115 c0 110 1 117 25 140 31 32 84 34 111 4 16 -18 20 -40
22 -143 l4 -121 44 4 44 3 0 124 c0 182 -24 224 -128 232 -51 4 -62 1 -89 -22z"/>
<path d="M323 5906 c-68 -85 -123 -155 -123 -157 0 -2 26 -2 57 -1 l58 4 67
86 68 87 0 68 c0 37 -1 67 -2 67 -2 0 -58 -69 -125 -154z"/>
<path d="M623 5905 l-123 -155 58 0 57 0 68 87 67 87 0 68 c0 37 -1 68 -2 68
-2 0 -58 -70 -125 -155z"/>
<path d="M2940 5538 c-67 -145 -65 -138 -47 -138 8 0 24 16 36 35 20 34 22 35
81 35 59 0 61 -1 77 -35 15 -31 43 -49 43 -26 0 5 -23 61 -51 125 -37 84 -56
116 -69 116 -12 0 -32 -33 -70 -112z"/>
<path d="M3505 5545 c-40 -39 -28 -111 22 -134 80 -36 162 28 133 105 -15 39
-39 53 -88 54 -32 0 -49 -6 -67 -25z"/>
<path d="M3991 5561 c-25 -16 -3 -30 29 -18 22 8 35 9 48 1 32 -21 20 -39 -31
-45 -53 -6 -69 -20 -65 -59 4 -32 47 -49 88 -33 18 7 32 7 36 2 14 -24 24 -3
24 54 0 83 -17 107 -73 107 -23 0 -48 -4 -56 -9z"/>
<path d="M4310 5550 c-60 -60 -19 -150 69 -150 32 0 67 23 57 38 -4 7 -16 6
-36 -6 -28 -16 -30 -16 -56 4 -15 11 -28 24 -28 29 -1 6 29 11 67 13 64 3 67
4 67 27 0 59 -95 90 -140 45z"/>
</g>
</svg>
